<?xml version="1.0" encoding="UTF-8"?>
<!DOCTYPE svg PUBLIC "-//W3C//DTD SVG 1.1//EN" "http://www.w3.org/Graphics/SVG/1.1/DTD/svg11.dtd">
<svg xmlns="http://www.w3.org/2000/svg" version="1.1" width="200px" height="200px" style="shape-rendering:geometricPrecision; text-rendering:geometricPrecision; image-rendering:optimizeQuality; fill-rule:evenodd; clip-rule:evenodd" xmlns:xlink="http://www.w3.org/1999/xlink">
<g><path style="opacity:1" fill="#78b0e7" d="M 74.5,39.5 C 73.6314,41.717 73.298,44.0504 73.5,46.5C 69.8592,49.8049 66.1925,53.1383 62.5,56.5C 61.7113,54.4049 61.378,52.4049 61.5,50.5C 61.5,50.1667 61.5,49.8333 61.5,49.5C 61.5,46.5 61.5,43.5 61.5,40.5C 65.6344,39.5151 69.9677,39.1818 74.5,39.5 Z"/></g>
<g><path style="opacity:1" fill="#80bce7" d="M 73.5,46.5 C 73.298,44.0504 73.6314,41.717 74.5,39.5C 78.8076,38.6324 83.141,38.4657 87.5,39C 82.7272,41.4148 78.0605,43.9148 73.5,46.5 Z"/></g>
<g><path style="opacity:1" fill="#73a7e7" d="M 61.5,40.5 C 61.5,43.5 61.5,46.5 61.5,49.5C 58.4731,47.471 56.1398,44.8044 54.5,41.5C 56.7427,40.5258 59.076,40.1924 61.5,40.5 Z"/></g>
<g><path style="opacity:1" fill="#76afe7" d="M 110.5,40.5 C 115.766,40.1888 120.766,40.8554 125.5,42.5C 124.521,45.6248 124.187,48.9581 124.5,52.5C 119.798,52.9504 115.132,53.617 110.5,54.5C 109.167,49.8333 109.167,45.1667 110.5,40.5 Z"/></g>
<g><path style="opacity:1" fill="#71a8e7" d="M 110.5,40.5 C 109.167,45.1667 109.167,49.8333 110.5,54.5C 105.788,55.7347 101.455,57.7347 97.5,60.5C 95.6213,55.1299 94.9546,49.4632 95.5,43.5C 100.273,41.9783 105.273,40.9783 110.5,40.5 Z"/></g>
<g><path style="opacity:1" fill="#7db5e7" d="M 125.5,42.5 C 129.816,42.3296 133.816,43.3296 137.5,45.5C 137.81,48.7131 137.477,51.7131 136.5,54.5C 132.454,54.0479 128.454,53.3813 124.5,52.5C 124.187,48.9581 124.521,45.6248 125.5,42.5 Z"/></g>
<g><path style="opacity:1" fill="#6fa1e7" d="M 95.5,43.5 C 94.9546,49.4632 95.6213,55.1299 97.5,60.5C 92.1393,63.8607 87.8059,68.1941 84.5,73.5C 82.8984,65.5864 81.8984,57.5864 81.5,49.5C 85.6136,46.4491 90.2803,44.4491 95.5,43.5 Z"/></g>
<g><path style="opacity:1" fill="#7ebae6" d="M 137.5,45.5 C 142.827,47.1588 147.493,49.8255 151.5,53.5C 150.343,56.0259 150.343,58.6926 151.5,61.5C 146.556,58.8588 141.556,56.5255 136.5,54.5C 137.477,51.7131 137.81,48.7131 137.5,45.5 Z"/></g>
<g><path style="opacity:1" fill="#6a9be6" d="M 81.5,49.5 C 81.8984,57.5864 82.8984,65.5864 84.5,73.5C 76.3447,91.5893 76.678,109.589 85.5,127.5C 84.2502,127.423 83.4169,126.756 83,125.5C 82.1894,137.243 82.3561,148.909 83.5,160.5C 79.4862,160.666 75.4862,160.499 71.5,160C 70.1772,159.184 69.5106,158.017 69.5,156.5C 69.8316,123.996 69.4982,91.6624 68.5,59.5C 71.9232,54.9582 76.2565,51.6249 81.5,49.5 Z"/></g>
<g><path style="opacity:1" fill="#83c1e7" d="M 151.5,53.5 C 158.993,58.9608 164.993,65.7942 169.5,74C 168.833,74.6667 168.167,74.6667 167.5,74C 162.578,69.2368 157.244,65.0701 151.5,61.5C 150.343,58.6926 150.343,56.0259 151.5,53.5 Z"/></g>
<g><path style="opacity:1" fill="#6fa3e6" d="M 61.5,50.5 C 61.378,52.4049 61.7113,54.4049 62.5,56.5C 58.5771,61.3604 54.9104,66.3604 51.5,71.5C 50.2854,67.9674 50.2854,64.3008 51.5,60.5C 53.8333,56.1667 57.1667,52.8333 61.5,50.5 Z"/></g>
<g><path style="opacity:1" fill="#6996e7" d="M 68.5,59.5 C 69.4982,91.6624 69.8316,123.996 69.5,156.5C 66.3954,153.725 64.0621,150.392 62.5,146.5C 62.5,120.167 62.5,93.8333 62.5,67.5C 64.1223,64.5451 66.1223,61.8785 68.5,59.5 Z"/></g>
<g><path style="opacity:1" fill="#6a9be7" d="M 51.5,60.5 C 50.2854,64.3008 50.2854,67.9674 51.5,71.5C 49.6357,75.7599 47.969,80.0932 46.5,84.5C 45.8333,79.8333 45.1667,75.1667 44.5,70.5C 46.0621,66.6082 48.3954,63.2749 51.5,60.5 Z"/></g>
<g><path style="opacity:1" fill="#6495e6" d="M 62.5,67.5 C 62.5,93.8333 62.5,120.167 62.5,146.5C 58.7176,140.599 55.7176,134.266 53.5,127.5C 54.8333,113.5 54.8333,99.5 53.5,85.5C 54.9909,78.6612 57.9909,72.6612 62.5,67.5 Z"/></g>
<g><path style="opacity:1" fill="#6595e6" d="M 104.5,115.5 C 103.507,123.984 103.174,132.651 103.5,141.5C 96.4884,134.821 91.4884,126.821 88.5,117.5C 88.5,104.833 88.5,92.1667 88.5,79.5C 90.9322,72.6429 95.2656,67.3096 101.5,63.5C 101.833,63.8333 102.167,64.1667 102.5,64.5C 94.2566,81.7245 94.9233,98.7245 104.5,115.5 Z"/></g>
<g><path style="opacity:1" fill="#75aee6" d="M 32.5,82.5 C 31.5206,79.3752 31.1872,76.0419 31.5,72.5C 33.6006,70.572 35.9339,69.9053 38.5,70.5C 36.9812,74.8712 34.9812,78.8712 32.5,82.5 Z"/></g>
<g><path style="opacity:1" fill="#6e9fe6" d="M 128.5,73.5 C 128.5,75.5 128.5,77.5 128.5,79.5C 92.73,78.7108 92.73,76.7108 128.5,73.5 Z"/></g>
<g><path style="opacity:1" fill="#71a7e7" d="M 128.5,73.5 C 132.548,73.3946 136.548,73.7279 140.5,74.5C 141.167,77.1667 141.833,79.8333 142.5,82.5C 137.829,81.4992 133.162,80.4992 128.5,79.5C 128.5,77.5 128.5,75.5 128.5,73.5 Z"/></g>
<g><path style="opacity:1" fill="#71a8e7" d="M 31.5,72.5 C 31.1872,76.0419 31.5206,79.3752 32.5,82.5C 30.1568,85.2072 27.8235,87.8739 25.5,90.5C 24.2001,85.5999 24.2001,80.5999 25.5,75.5C 27.0326,73.7549 29.0326,72.7549 31.5,72.5 Z"/></g>
<g><path style="opacity:1" fill="#76aee6" d="M 140.5,74.5 C 145.656,74.8645 150.656,75.8645 155.5,77.5C 156.414,80.728 156.747,84.0613 156.5,87.5C 151.688,86.2295 147.022,84.5629 142.5,82.5C 141.833,79.8333 141.167,77.1667 140.5,74.5 Z"/></g>
<g><path style="opacity:1" fill="#6fa2e6" d="M 25.5,75.5 C 24.2001,80.5999 24.2001,85.5999 25.5,90.5C 22.097,95.6458 20.097,101.312 19.5,107.5C 17.8452,99.3832 16.8452,91.0499 16.5,82.5C 18.592,79.083 21.592,76.7497 25.5,75.5 Z"/></g>
<g><path style="opacity:1" fill="#6696e6" d="M 44.5,70.5 C 45.1667,75.1667 45.8333,79.8333 46.5,84.5C 42.7131,98.1788 42.5465,111.845 46,125.5C 41.8512,120.869 39.0179,115.536 37.5,109.5C 38.8222,106.232 39.4888,102.565 39.5,98.5C 39.3333,94.8333 39.1667,91.1667 39,87.5C 38.6174,86.944 38.1174,86.6107 37.5,86.5C 38.7814,80.6134 41.1147,75.2801 44.5,70.5 Z"/></g>
<g><path style="opacity:1" fill="#7cb5e7" d="M 155.5,77.5 C 160.642,78.5422 165.309,80.5422 169.5,83.5C 168.833,87.5 168.167,91.5 167.5,95.5C 163.81,92.8015 160.143,90.1348 156.5,87.5C 156.747,84.0613 156.414,80.728 155.5,77.5 Z"/></g>
<g><path style="opacity:1" fill="#648fe6" d="M 88.5,79.5 C 88.5,92.1667 88.5,104.833 88.5,117.5C 83.2086,104.814 83.2086,92.1471 88.5,79.5 Z"/></g>
<g><path style="opacity:1" fill="#6a9ce6" d="M 16.5,82.5 C 16.8452,91.0499 17.8452,99.3832 19.5,107.5C 18.3216,111.452 18.3216,115.452 19.5,119.5C 18.8826,119.389 18.3826,119.056 18,118.5C 17.5002,129.161 17.3335,139.828 17.5,150.5C 14.5067,149.167 12.1734,147.167 10.5,144.5C 10.8196,126.09 10.4862,107.757 9.5,89.5C 10.8552,86.1447 13.1886,83.8114 16.5,82.5 Z"/></g>
<g><path style="opacity:1" fill="#648fe6" d="M 53.5,85.5 C 54.8333,99.5 54.8333,113.5 53.5,127.5C 49.5519,113.456 49.5519,99.4559 53.5,85.5 Z"/></g>
<g><path style="opacity:1" fill="#638fe6" d="M 37.5,86.5 C 38.1174,86.6107 38.6174,86.944 39,87.5C 39.1667,91.1667 39.3333,94.8333 39.5,98.5C 39.4888,102.565 38.8222,106.232 37.5,109.5C 36.1667,101.833 36.1667,94.1667 37.5,86.5 Z"/></g>
<g><path style="opacity:1" fill="#6895e6" d="M 9.5,89.5 C 10.4862,107.757 10.8196,126.09 10.5,144.5C 5.73006,140.637 2.73006,135.637 1.5,129.5C 2.16535,126.016 2.49869,122.349 2.5,118.5C 2.48885,114.435 1.82218,110.768 0.5,107.5C 2.4628,100.908 5.4628,94.9077 9.5,89.5 Z"/></g>
<g><path style="opacity:1" fill="#83c1e7" d="M 184.5,94.5 C 189.746,99.9808 193.746,106.314 196.5,113.5C 195.883,113.389 195.383,113.056 195,112.5C 194.175,123.008 194.341,133.342 195.5,143.5C 192.757,148.578 188.757,152.245 183.5,154.5C 182.5,154.5 181.5,154.5 180.5,154.5C 181.192,133.931 181.359,113.265 181,92.5C 181.816,93.8228 182.983,94.4894 184.5,94.5 Z"/></g>
<g><path style="opacity:1" fill="#638ee6" d="M 0.5,107.5 C 1.82218,110.768 2.48885,114.435 2.5,118.5C 2.49869,122.349 2.16535,126.016 1.5,129.5C 0.833333,128.167 0.166667,126.833 -0.5,125.5C -0.5,120.5 -0.5,115.5 -0.5,110.5C 0.403972,109.791 0.737305,108.791 0.5,107.5 Z"/></g>
<g><path style="opacity:1" fill="#84c7e7" d="M 196.5,113.5 C 197.512,116.252 198.512,118.919 199.5,121.5C 199.5,125.833 199.5,130.167 199.5,134.5C 198.483,137.544 197.149,140.544 195.5,143.5C 194.341,133.342 194.175,123.008 195,112.5C 195.383,113.056 195.883,113.389 196.5,113.5 Z"/></g>
<g><path style="opacity:1" fill="#699be6" d="M 104.5,115.5 C 108.115,121.116 112.115,126.45 116.5,131.5C 116.334,138.508 116.5,145.508 117,152.5C 117.717,153.044 118.217,153.711 118.5,154.5C 112.609,151.281 107.609,146.948 103.5,141.5C 103.174,132.651 103.507,123.984 104.5,115.5 Z"/></g>
<g><path style="opacity:1" fill="#6fa1e6" d="M 19.5,119.5 C 20.9751,123.783 22.9751,127.783 25.5,131.5C 24.5343,139.08 24.201,146.747 24.5,154.5C 21.6689,153.921 19.3356,152.588 17.5,150.5C 17.3335,139.828 17.5002,129.161 18,118.5C 18.3826,119.056 18.8826,119.389 19.5,119.5 Z"/></g>
<g><path style="opacity:1" fill="#6fa1e6" d="M 85.5,127.5 C 88.8269,134.82 93.1602,141.487 98.5,147.5C 97.5041,147.586 96.6708,147.252 96,146.5C 95.2266,151.252 95.3932,155.919 96.5,160.5C 92.1667,160.5 87.8333,160.5 83.5,160.5C 82.3561,148.909 82.1894,137.243 83,125.5C 83.4169,126.756 84.2502,127.423 85.5,127.5 Z"/></g>
<g><path style="opacity:1" fill="#6fa1e6" d="M 116.5,131.5 C 120.524,134.531 124.524,137.531 128.5,140.5C 128.5,147.167 128.5,153.833 128.5,160.5C 124.495,159.502 121.161,157.502 118.5,154.5C 118.217,153.711 117.717,153.044 117,152.5C 116.5,145.508 116.334,138.508 116.5,131.5 Z"/></g>
<g><path style="opacity:1" fill="#7ebae6" d="M 169.5,83.5 C 175.348,86.015 180.348,89.6817 184.5,94.5C 182.983,94.4894 181.816,93.8228 181,92.5C 181.359,113.265 181.192,133.931 180.5,154.5C 181.5,154.5 182.5,154.5 183.5,154.5C 179.044,157.541 174.044,159.208 168.5,159.5C 168.5,153.167 168.5,146.833 168.5,140.5C 175.981,136.556 179.648,130.223 179.5,121.5C 178.73,111.295 174.73,102.629 167.5,95.5C 168.167,91.5 168.833,87.5 169.5,83.5 Z"/></g>
<g><path style="opacity:1" fill="#73a8e6" d="M 25.5,131.5 C 27.5398,133.177 29.5398,134.844 31.5,136.5C 31.7955,143.588 31.4621,150.588 30.5,157.5C 28.2504,156.87 26.2504,155.87 24.5,154.5C 24.201,146.747 24.5343,139.08 25.5,131.5 Z"/></g>
<g><path style="opacity:1" fill="#76aee7" d="M 31.5,136.5 C 34.4061,137.787 37.4061,138.787 40.5,139.5C 39.5399,146.078 39.2066,152.745 39.5,159.5C 36.4606,158.99 33.4606,158.323 30.5,157.5C 31.4621,150.588 31.7955,143.588 31.5,136.5 Z"/></g>
<g><path style="opacity:1" fill="#7db5e7" d="M 40.5,139.5 C 42.717,140.369 45.0504,140.702 47.5,140.5C 45.9179,146.736 44.9179,153.07 44.5,159.5C 42.8333,159.5 41.1667,159.5 39.5,159.5C 39.2066,152.745 39.5399,146.078 40.5,139.5 Z"/></g>
<g><path style="opacity:1" fill="#7db5e6" d="M 162.5,140.5 C 164.5,140.5 166.5,140.5 168.5,140.5C 168.5,146.833 168.5,153.167 168.5,159.5C 164.566,160.36 160.566,160.693 156.5,160.5C 156.5,154.167 156.5,147.833 156.5,141.5C 158.735,141.795 160.735,141.461 162.5,140.5 Z"/></g>
<g><path style="opacity:1" fill="#7dbae7" d="M 47.5,140.5 C 50.8084,141.065 52.8084,143.065 53.5,146.5C 52.5139,150.97 52.1805,155.637 52.5,160.5C 49.6146,160.806 46.9479,160.473 44.5,159.5C 44.9179,153.07 45.9179,146.736 47.5,140.5 Z"/></g>
<g><path style="opacity:1" fill="#73a7e7" d="M 128.5,140.5 C 129.167,140.5 129.833,140.5 130.5,140.5C 133.962,141.482 137.629,141.815 141.5,141.5C 141.209,147.923 141.542,154.256 142.5,160.5C 137.833,160.5 133.167,160.5 128.5,160.5C 128.5,153.833 128.5,147.167 128.5,140.5 Z"/></g>
<g><path style="opacity:1" fill="#77b0e8" d="M 130.5,140.5 C 141.167,140.5 151.833,140.5 162.5,140.5C 160.735,141.461 158.735,141.795 156.5,141.5C 156.5,147.833 156.5,154.167 156.5,160.5C 151.833,160.5 147.167,160.5 142.5,160.5C 141.542,154.256 141.209,147.923 141.5,141.5C 137.629,141.815 133.962,141.482 130.5,140.5 Z"/></g>
<g><path style="opacity:1" fill="#71a8e7" d="M 98.5,147.5 C 102.787,151.45 107.12,155.45 111.5,159.5C 106.544,160.494 101.544,160.827 96.5,160.5C 95.3932,155.919 95.2266,151.252 96,146.5C 96.6708,147.252 97.5041,147.586 98.5,147.5 Z"/></g>
<g><path style="opacity:1" fill="#82c1e7" d="M 53.5,146.5 C 56.6905,151.021 60.0238,155.521 63.5,160C 59.8484,160.499 56.1817,160.665 52.5,160.5C 52.1805,155.637 52.5139,150.97 53.5,146.5 Z"/></g>
</svg>
