<?xml version="1.0" encoding="UTF-8"?>
<!DOCTYPE svg PUBLIC "-//W3C//DTD SVG 1.1//EN" "http://www.w3.org/Graphics/SVG/1.1/DTD/svg11.dtd">
<svg xmlns="http://www.w3.org/2000/svg" version="1.1" width="32px" height="32px" style="shape-rendering:geometricPrecision; text-rendering:geometricPrecision; image-rendering:optimizeQuality; fill-rule:evenodd; clip-rule:evenodd" xmlns:xlink="http://www.w3.org/1999/xlink">
<g><path style="opacity:1" fill="#ebf4fa" d="M 9.5,-0.5 C 13.5,-0.5 17.5,-0.5 21.5,-0.5C 25.8333,1.83333 29.1667,5.16667 31.5,9.5C 31.5,13.5 31.5,17.5 31.5,21.5C 29.1667,25.8333 25.8333,29.1667 21.5,31.5C 17.5,31.5 13.5,31.5 9.5,31.5C 5.16667,29.1667 1.83333,25.8333 -0.5,21.5C -0.5,17.5 -0.5,13.5 -0.5,9.5C 1.83333,5.16667 5.16667,1.83333 9.5,-0.5 Z"/></g>
<g><path style="opacity:1" fill="#20a1fa" d="M 11.5,0.5 C 19.5636,-0.343588 20.897,1.82308 15.5,7C 8.7337,8.3426 5.7337,12.5093 6.5,19.5C 7.83333,19.5 9.16667,19.5 10.5,19.5C 7.98734,13.3546 9.98734,9.85458 16.5,9C 18.393,6.69689 20.393,4.53023 22.5,2.5C 32.7506,10.545 33.084,19.045 23.5,28C 19.7924,30.1318 15.7924,30.9651 11.5,30.5C 12.3556,26.1462 15.0223,23.6462 19.5,23C 22.9441,20.0052 24.6107,16.1718 24.5,11.5C 23.1667,11.5 21.8333,11.5 20.5,11.5C 23.0127,17.6454 21.0127,21.1454 14.5,22C 12.4565,23.708 10.7899,25.708 9.5,28C 6.90674,27.4535 4.74007,25.9535 3,23.5C -1.49175,13.1469 1.34158,5.48024 11.5,0.5 Z"/></g>
</svg>
